<?xml version="1.0" encoding="utf-8"?>
<!-- Generator: Adobe Illustrator 23.0.1, SVG Export Plug-In . SVG Version: 6.00 Build 0)  -->
<svg version="1.1" id="Layer_1" xmlns="http://www.w3.org/2000/svg" xmlns:xlink="http://www.w3.org/1999/xlink" x="0px" y="0px"
	 viewBox="0 0 2500 868" style="enable-background:new 0 0 2500 868;" xml:space="preserve">
<style type="text/css">
	.st0{fill:#FFFFFF;}
</style>
<g>
	<path class="st0" d="M143.8,619.9c10.6,28,25.2,52,43.9,71.9c18.7,19.9,40.8,35.1,66.4,45.7c25.6,10.6,53.4,15.8,83.5,15.8
		c29.3,0,56.7-5.5,82.3-16.5c25.6-11,47.9-26.4,67-46.3c19.1-19.9,33.9-43.7,44.5-71.3c10.6-27.6,15.8-58.5,15.8-92.6V0.1h128v853.3
		H548.5v-79.2c-28.4,30.1-62,53.2-100.6,69.5c-38.6,16.3-80.2,24.4-124.9,24.4c-45.5,0-88-7.9-127.4-23.8
		c-39.4-15.8-73.5-38.4-102.4-67.6C64.4,747.3,41.6,712.1,25,671.1C8.3,630,0,584.3,0,534V0.1h128v526.6
		C128,560.8,133.3,591.9,143.8,619.9L143.8,619.9z M895.9,0.1v310.8c28.4-28.4,61.4-51,98.7-67.6s78-25,121.9-25
		c45.5,0,88.2,8.5,128,25.6c39.8,17.1,74.4,40.2,103.6,69.5c29.3,29.3,52.4,63.8,69.5,103.6c17.1,39.8,25.6,82.1,25.6,126.8
		c0,44.7-8.5,86.7-25.6,126.2c-17.1,39.4-40.2,73.7-69.5,103c-29.3,29.3-63.8,52.4-103.6,69.5c-39.8,17.1-82.5,25.6-128,25.6
		c-43.9,0-84.7-8.3-122.5-25c-37.8-16.7-70.9-39.2-99.3-67.6v78H772.8V0.1H895.9z M909.9,627.8c11,26,26.2,48.8,45.7,68.3
		s42.3,34.9,68.3,46.3c26,11.4,54,17.1,84.1,17.1c29.3,0,56.9-5.7,82.9-17.1c26-11.4,48.6-26.8,67.7-46.3
		c19.1-19.5,34.3-42.3,45.7-68.3c11.4-26,17.1-54,17.1-84.1s-5.7-58.3-17.1-84.7c-11.4-26.4-26.6-49.4-45.7-68.9
		c-19.1-19.5-41.6-34.7-67.7-45.7c-26-11-53.6-16.5-82.9-16.5c-29.3,0-56.9,5.5-82.9,16.5c-26,11-48.8,26.2-68.3,45.7
		c-19.5,19.5-34.9,42.5-46.3,68.9c-11.4,26.4-17.1,54.6-17.1,84.7C893.5,573.8,899,601.8,909.9,627.8L909.9,627.8z M1512.7,418.2
		c16.3-39,38.6-73.3,67-103c28.4-29.7,62.2-53,101.2-70.1c39-17.1,81.3-25.6,126.8-25.6c44.7,0,86.1,8.1,124.3,24.4
		c38.2,16.3,71.1,38.8,98.7,67.7c27.6,28.8,49.2,63,64.6,102.4c15.4,39.4,23.2,82.3,23.2,128.6v40.2h-505.9
		c4.1,25.2,12.2,48.6,24.4,70.1c12.2,21.5,27.4,40.2,45.7,56.1c18.3,15.8,39,28.2,62.2,37.2c23.2,8.9,47.7,13.4,73.7,13.4
		c74,0,133.7-30.5,179.2-91.4l89,65.8c-30.9,41.4-69.1,74-114.6,97.5c-45.5,23.6-96.7,35.3-153.6,35.3c-46.3,0-89.6-8.1-129.8-24.4
		c-40.2-16.3-75.2-39-104.8-68.3c-29.7-29.3-53-63.6-70.1-103s-25.6-82.3-25.6-128.6C1488.3,498.6,1496.4,457.2,1512.7,418.2
		L1512.7,418.2z M1683.9,370c-34.5,28.8-57.5,67.2-68.9,115.2h379.1c-10.6-47.9-33.1-86.3-67.7-115.2c-34.5-28.8-75-43.3-121.3-43.3
		C1758.9,326.7,1718.5,341.2,1683.9,370L1683.9,370z M2348.9,384c-26,28.4-39,67-39,115.8v353.5h-123.1V231.7h121.9v76.8
		c15.4-25.2,35.6-45.1,60.3-59.7c24.8-14.6,54.2-21.9,88.4-21.9h42.7v114.6h-51.2C2408.2,341.4,2374.9,355.6,2348.9,384L2348.9,384z
		"/>
</g>
</svg>
